<?xml version="1.0" encoding="UTF-8"?>
<svg width="200px" height="200px" viewBox="0 0 200 200" version="1.1" xmlns="http://www.w3.org/2000/svg" xmlns:xlink="http://www.w3.org/1999/xlink">
    <!-- Generator: Sketch 61.2 (89653) - https://sketch.com -->
    <title>modify</title>
    <desc>Created with Sketch.</desc>
    <g id="Page-1" stroke="none" stroke-width="1" fill="none" fill-rule="evenodd">
        <g id="Group-16" transform="translate(0.000000, 0.000000)" stroke="#000000">
            <path d="M100,4.25 C65.8168802,4.25 54.3858008,4.48328733 42.656834,5.78650587 C28.9614713,7.30821284 20.7438518,10.2665559 15.5052038,15.5052038 C10.2665559,20.7438518 7.30821284,28.9614713 5.78650587,42.656834 C4.48328733,54.3858008 4.25,65.8168802 4.25,100 C4.25,134.18312 4.48328733,145.614199 5.78650587,157.343166 C7.30821284,171.038529 10.2665559,179.256148 15.5052038,184.494796 C20.7438518,189.733444 28.9614713,192.691787 42.656834,194.213494 C54.3858008,195.516713 65.8168802,195.75 100,195.75 C134.18312,195.75 145.614199,195.516713 157.343166,194.213494 C171.038529,192.691787 179.256148,189.733444 184.494796,184.494796 C189.733444,179.256148 192.691787,171.038529 194.213494,157.343166 C195.516713,145.614199 195.75,134.18312 195.75,100 C195.75,65.8168802 195.516713,54.3858008 194.213494,42.656834 C192.691787,28.9614713 189.733444,20.7438518 184.494796,15.5052038 C179.256148,10.2665559 171.038529,7.30821284 157.343166,5.78650587 C145.614199,4.48328733 134.18312,4.25 100,4.25 Z" id="Rectangle" stroke-width="8.5"></path>
            <g id="Group-15" transform="translate(35.000000, 33.000000)">
                <g id="Group-14" transform="translate(47.000000, 0.000000)">
                    <path d="M29.638088,5.47816974 C22.9203292,22.3224841 18.1514165,34.3030886 15.3313498,41.4199833 C7.11962915,62.1435899 1.28322565,77.0922412 0.514241952,79.5819775 C-0.650867968,83.3542505 0.163850556,95.8269247 2.95839753,117 C21.3798144,106.726775 32.0318299,99.7846039 34.914444,96.1734857 C37.3095025,93.1731398 45.4291864,74.2402654 53.8853287,55.4991201 C60.6954916,40.4059197 68.3092126,24.967589 68.8405642,21.6742229 C70.031692,14.2915018 64.7178075,3.95854296 47.1791183,0.562558482 C39.1979747,-0.982815852 33.3509646,0.655721233 29.638088,5.47816974 Z" id="Path-13" stroke-width="7" stroke-linejoin="round"></path>
                    <path d="M7,84 C7.95420285,87.452707 10.6609566,90.1932961 15.1202612,92.221767 C19.5795657,94.250238 23.872812,94.5432666 28,93.1008528" id="Path-14" stroke-width="5" stroke-linecap="round"></path>
                    <path d="M34,13 C34.3593141,16.5645387 37.7684275,19.5511673 44.2273401,21.959886 C50.6862527,24.3686046 55.943806,24.6443816 60,22.7872171" id="Path-16" stroke-width="5" stroke-linecap="round"></path>
                </g>
                <polyline id="Path-17" stroke-width="8" stroke-linecap="round" stroke-linejoin="round" points="35.7627813 76.15624 17.9418196 76.15624 1.42108547e-14 129.233401 116 129.233401 129 76.15624 107 76.15624"></polyline>
            </g>
        </g>
    </g>
</svg>