<?xml version="1.0" encoding="UTF-8"?>
<svg width="200px" height="201px" viewBox="0 0 200 201" version="1.1" xmlns="http://www.w3.org/2000/svg" xmlns:xlink="http://www.w3.org/1999/xlink">
    <!-- Generator: Sketch 61.2 (89653) - https://sketch.com -->
    <title>add-child</title>
    <desc>Created with Sketch.</desc>
    <g id="Page-1" stroke="none" stroke-width="1" fill="none" fill-rule="evenodd">
        <g id="Group-18" transform="translate(0.000000, 0.500000)" stroke="#000000">
            <line x1="58" y1="80" x2="87.9303477" y2="80" id="Path-11" stroke-width="10"></line>
            <line x1="58" y1="80" x2="87.9303477" y2="80" id="Path-11" stroke-width="10" transform="translate(72.965174, 80.000000) rotate(90.000000) translate(-72.965174, -80.000000) "></line>
            <path d="M100,4.25 C65.8168802,4.25 54.3858008,4.48328733 42.656834,5.78650587 C28.9614713,7.30821284 20.7438518,10.2665559 15.5052038,15.5052038 C10.2665559,20.7438518 7.30821284,28.9614713 5.78650587,42.656834 C4.48328733,54.3858008 4.25,65.8168802 4.25,100 C4.25,134.18312 4.48328733,145.614199 5.78650587,157.343166 C7.30821284,171.038529 10.2665559,179.256148 15.5052038,184.494796 C20.7438518,189.733444 28.9614713,192.691787 42.656834,194.213494 C54.3858008,195.516713 65.8168802,195.75 100,195.75 C134.18312,195.75 145.614199,195.516713 157.343166,194.213494 C171.038529,192.691787 179.256148,189.733444 184.494796,184.494796 C189.733444,179.256148 192.691787,171.038529 194.213494,157.343166 C195.516713,145.614199 195.75,134.18312 195.75,100 C195.75,65.8168802 195.516713,54.3858008 194.213494,42.656834 C192.691787,28.9614713 189.733444,20.7438518 184.494796,15.5052038 C179.256148,10.2665559 171.038529,7.30821284 157.343166,5.78650587 C145.614199,4.48328733 134.18312,4.25 100,4.25 Z" id="Rectangle" stroke-width="8.5" transform="translate(100.000000, 100.000000) rotate(180.000000) translate(-100.000000, -100.000000) "></path>
            <path d="M164.573491,101.034826 C162.76531,101.096586 156.202828,101.096586 144.886045,101.034826 C133.569262,100.973066 116.273914,100.79479 93,100.5 L93,131.5 L144.886045,130.965174 L164.573491,130.965174" id="Path-10" stroke-width="10" stroke-linejoin="round"></path>
            <path d="M149.339796,70.6483578 C149.339796,55.0701247 149.339796,46.1585583 149.339796,43.9136586 L42.7570262,43.9136586 L42.7570262,164.838689 L149.339796,164.838689 L149.339796,145" id="Path-18" stroke-width="10" stroke-linejoin="round"></path>
        </g>
    </g>
</svg>