<?xml version="1.0" encoding="UTF-8"?>
<svg width="200px" height="200px" viewBox="0 0 200 200" version="1.1" xmlns="http://www.w3.org/2000/svg" xmlns:xlink="http://www.w3.org/1999/xlink">
    <!-- Generator: Sketch 61.2 (89653) - https://sketch.com -->
    <title>right-arrow</title>
    <desc>Created with Sketch.</desc>
    <g id="Page-1" stroke="none" stroke-width="1" fill="none" fill-rule="evenodd">
        <g id="right-arrow" transform="translate(100.000000, 100.000000) rotate(90.000000) translate(-100.000000, -100.000000) translate(-0.000000, 0.000000)">
            <path d="M100,4.25 C65.8168802,4.25 54.3858008,4.48328733 42.656834,5.78650587 C28.9614713,7.30821284 20.7438518,10.2665559 15.5052038,15.5052038 C10.2665559,20.7438518 7.30821284,28.9614713 5.78650587,42.656834 C4.48328733,54.3858008 4.25,65.8168802 4.25,100 C4.25,134.18312 4.48328733,145.614199 5.78650587,157.343166 C7.30821284,171.038529 10.2665559,179.256148 15.5052038,184.494796 C20.7438518,189.733444 28.9614713,192.691787 42.656834,194.213494 C54.3858008,195.516713 65.8168802,195.75 100,195.75 C134.18312,195.75 145.614199,195.516713 157.343166,194.213494 C171.038529,192.691787 179.256148,189.733444 184.494796,184.494796 C189.733444,179.256148 192.691787,171.038529 194.213494,157.343166 C195.516713,145.614199 195.75,134.18312 195.75,100 C195.75,65.8168802 195.516713,54.3858008 194.213494,42.656834 C192.691787,28.9614713 189.733444,20.7438518 184.494796,15.5052038 C179.256148,10.2665559 171.038529,7.30821284 157.343166,5.78650587 C145.614199,4.48328733 134.18312,4.25 100,4.25 Z" id="Rectangle" stroke="#000000" stroke-width="8.5" fill="#FFFFFF"></path>
            <path d="M121,88 C121,104.334299 121,127.334299 121,157 L81,157 C81,126.74268 81,103.74268 81,88 C74.3333333,88 66,90 56,94 L49,88 L100.5,36 L152,88 L145,94 C135.666667,90 127.666667,88 121,88 Z" id="Path" fill="#000000"></path>
        </g>
    </g>
</svg>