<?xml version="1.0" encoding="UTF-8"?>
<svg width="200px" height="201px" viewBox="0 0 200 201" version="1.1" xmlns="http://www.w3.org/2000/svg" xmlns:xlink="http://www.w3.org/1999/xlink">
    <!-- Generator: Sketch 61.2 (89653) - https://sketch.com -->
    <title>create-record</title>
    <desc>Created with Sketch.</desc>
    <g id="Page-1" stroke="none" stroke-width="1" fill="none" fill-rule="evenodd">
        <g id="create-record" transform="translate(0.000000, 0.500000)" stroke="#000000">
            <path d="M100,4.25 C65.8168802,4.25 54.3858008,4.48328733 42.656834,5.78650587 C28.9614713,7.30821284 20.7438518,10.2665559 15.5052038,15.5052038 C10.2665559,20.7438518 7.30821284,28.9614713 5.78650587,42.656834 C4.48328733,54.3858008 4.25,65.8168802 4.25,100 C4.25,134.18312 4.48328733,145.614199 5.78650587,157.343166 C7.30821284,171.038529 10.2665559,179.256148 15.5052038,184.494796 C20.7438518,189.733444 28.9614713,192.691787 42.656834,194.213494 C54.3858008,195.516713 65.8168802,195.75 100,195.75 C134.18312,195.75 145.614199,195.516713 157.343166,194.213494 C171.038529,192.691787 179.256148,189.733444 184.494796,184.494796 C189.733444,179.256148 192.691787,171.038529 194.213494,157.343166 C195.516713,145.614199 195.75,134.18312 195.75,100 C195.75,65.8168802 195.516713,54.3858008 194.213494,42.656834 C192.691787,28.9614713 189.733444,20.7438518 184.494796,15.5052038 C179.256148,10.2665559 171.038529,7.30821284 157.343166,5.78650587 C145.614199,4.48328733 134.18312,4.25 100,4.25 Z" id="Rectangle" stroke-width="8.5" transform="translate(100.000000, 100.000000) rotate(180.000000) translate(-100.000000, -100.000000) "></path>
            <g id="Group-13" transform="translate(30.000000, 39.500000)" stroke-width="10">
                <path d="M21,-5.32907052e-15 C21,5.610027 21,13.9433603 21,25 L119,25 C119,16.6666667 119,8.33333333 119,-5.32907052e-15" id="Path-9" stroke-linejoin="round"></path>
                <path d="M21,96 C21,101.610027 21,109.94336 21,121 L119,121 C119.24935,112.666667 119.374025,104.333333 119.374025,96" id="Path-9" stroke-linejoin="round" transform="translate(70.187013, 108.500000) scale(1, -1) translate(-70.187013, -108.500000) "></path>
                <path d="M136.573491,45.5348261 C121.431976,45.5965865 108.202828,45.5965865 96.8860448,45.5348261 C85.5692619,45.4730658 68.2739137,45.2947904 45,45 L45,76 L96.8860448,75.4651739 L136.573491,75.4651739" id="Path-10" stroke-linejoin="round"></path>
                <g id="Group-4" transform="translate(0.000000, 45.000000)">
                    <line x1="0" y1="15.5" x2="29.9303477" y2="15.5" id="Path-11"></line>
                    <line x1="0" y1="15.5" x2="29.9303477" y2="15.5" id="Path-11" transform="translate(14.965174, 15.500000) rotate(90.000000) translate(-14.965174, -15.500000) "></line>
                </g>
            </g>
        </g>
    </g>
</svg>