<?xml version="1.0" encoding="UTF-8"?>
<svg width="200px" height="201px" viewBox="0 0 200 201" version="1.1" xmlns="http://www.w3.org/2000/svg" xmlns:xlink="http://www.w3.org/1999/xlink">
    <!-- Generator: Sketch 61.2 (89653) - https://sketch.com -->
    <title>scan</title>
    <desc>Created with Sketch.</desc>
    <g id="Page-1" stroke="none" stroke-width="1" fill="none" fill-rule="evenodd">
        <path d="M100,4.75 C65.8168802,4.75 54.3858008,4.98328733 42.656834,6.28650587 C28.9614713,7.80821284 20.7438518,10.7665559 15.5052038,16.0052038 C10.2665559,21.2438518 7.30821284,29.4614713 5.78650587,43.156834 C4.48328733,54.8858008 4.25,66.3168802 4.25,100.5 C4.25,134.68312 4.48328733,146.114199 5.78650587,157.843166 C7.30821284,171.538529 10.2665559,179.756148 15.5052038,184.994796 C20.7438518,190.233444 28.9614713,193.191787 42.656834,194.713494 C54.3858008,196.016713 65.8168802,196.25 100,196.25 C134.18312,196.25 145.614199,196.016713 157.343166,194.713494 C171.038529,193.191787 179.256148,190.233444 184.494796,184.994796 C189.733444,179.756148 192.691787,171.538529 194.213494,157.843166 C195.516713,146.114199 195.75,134.68312 195.75,100.5 C195.75,66.3168802 195.516713,54.8858008 194.213494,43.156834 C192.691787,29.4614713 189.733444,21.2438518 184.494796,16.0052038 C179.256148,10.7665559 171.038529,7.80821284 157.343166,6.28650587 C145.614199,4.98328733 134.18312,4.75 100,4.75 Z" id="Rectangle" stroke="#000000" stroke-width="8.5" transform="translate(100.000000, 100.500000) rotate(180.000000) translate(-100.000000, -100.500000) "></path>
        <g id="Group-17" transform="translate(42.000000, 38.000000)" stroke="#000000" stroke-linecap="round" stroke-width="10">
            <path d="M24,0 C8,0 0,1.66666667 0,5 C0,10 0,115 0,120 C0,123.333333 8,125 24,125" id="Path-20" stroke-linejoin="round"></path>
            <path d="M91,0 C107,0 115,1.66666667 115,5 C115,10 115,115 115,120 C115,123.333333 107,125 91,125" id="Path-20" stroke-linejoin="round"></path>
            <line x1="24" y1="62.5" x2="91" y2="62.5" id="Path-21"></line>
        </g>
    </g>
</svg>