<?xml version="1.0" encoding="UTF-8"?>
<svg width="200px" height="200px" viewBox="0 0 200 200" version="1.1" xmlns="http://www.w3.org/2000/svg" xmlns:xlink="http://www.w3.org/1999/xlink">
    <!-- Generator: Sketch 61.2 (89653) - https://sketch.com -->
    <title>cross</title>
    <desc>Created with Sketch.</desc>
    <g id="Page-1" stroke="none" stroke-width="1" fill="none" fill-rule="evenodd">
        <g id="cross">
            <path d="M100,4.25 C65.8168802,4.25 54.3858008,4.48328733 42.656834,5.78650587 C28.9614713,7.30821284 20.7438518,10.2665559 15.5052038,15.5052038 C10.2665559,20.7438518 7.30821284,28.9614713 5.78650587,42.656834 C4.48328733,54.3858008 4.25,65.8168802 4.25,100 C4.25,134.18312 4.48328733,145.614199 5.78650587,157.343166 C7.30821284,171.038529 10.2665559,179.256148 15.5052038,184.494796 C20.7438518,189.733444 28.9614713,192.691787 42.656834,194.213494 C54.3858008,195.516713 65.8168802,195.75 100,195.75 C134.18312,195.75 145.614199,195.516713 157.343166,194.213494 C171.038529,192.691787 179.256148,189.733444 184.494796,184.494796 C189.733444,179.256148 192.691787,171.038529 194.213494,157.343166 C195.516713,145.614199 195.75,134.18312 195.75,100 C195.75,65.8168802 195.516713,54.3858008 194.213494,42.656834 C192.691787,28.9614713 189.733444,20.7438518 184.494796,15.5052038 C179.256148,10.2665559 171.038529,7.30821284 157.343166,5.78650587 C145.614199,4.48328733 134.18312,4.25 100,4.25 Z" id="Rectangle" stroke="#000000" stroke-width="8.5" transform="translate(100.000000, 100.000000) rotate(180.000000) translate(-100.000000, -100.000000) "></path>
            <polygon id="Path" fill="#000000" fill-rule="nonzero" points="138.488051 45.3263056 156.16572 63.0039751 118.42325 100.746446 156.16572 138.488916 138.488051 156.166586 100.74558 118.424115 63.0031099 156.166586 45.3254403 138.488916 83.0679108 100.746446 45.3254403 63.0039751 63.0031099 45.3263056 100.74558 83.0687761"></polygon>
        </g>
    </g>
</svg>